<svg width="384" height="124" viewBox="0 0 384 124" fill="none" xmlns="http://www.w3.org/2000/svg">
<path d="M118.625 75.6233H32.4687C31.4375 75.6233 30.5937 76.3968 30.5937 77.3422L30.5703 87.6552C30.5703 88.6005 31.4141 89.374 32.4453 89.374H118.625C119.656 89.374 120.5 88.6005 120.5 87.6552V77.3422C120.5 76.3968 119.656 75.6233 118.625 75.6233ZM118.625 96.2493H32.3984C31.3672 96.2493 30.5234 97.0228 30.5234 97.9682L30.5 108.281C30.5 109.227 31.3437 110 32.375 110H118.625C119.656 110 120.5 109.227 120.5 108.281V97.9682C120.5 97.0228 119.656 96.2493 118.625 96.2493ZM118.625 54.9973H32.5156C31.4844 54.9973 30.6406 55.7708 30.6406 56.7162L30.6172 67.0292C30.6172 67.9745 31.4609 68.748 32.4922 68.748H118.625C119.656 68.748 120.5 67.9745 120.5 67.0292V56.7162C120.5 55.7708 119.656 54.9973 118.625 54.9973ZM143.586 25.1326L79.8125 0.789603C78.4417 0.268321 76.9723 0 75.4883 0C74.0043 0 72.5348 0.268321 71.1641 0.789603L7.41406 25.1326C3.24219 26.744 0.5 30.4825 0.5 34.6506V108.281C0.5 109.227 1.34375 110 2.375 110H21.125C22.1563 110 23 109.227 23 108.281V54.9973C23 51.2159 26.4219 48.122 30.6406 48.122H120.359C124.578 48.122 128 51.2159 128 54.9973V108.281C128 109.227 128.844 110 129.875 110H148.625C149.656 110 150.5 109.227 150.5 108.281V34.6506C150.5 30.4825 147.758 26.744 143.586 25.1326Z" fill="#203E59"/>
<path d="M162.228 48L172.66 -3.8147e-06H177.78L188.18 48H183.22L181.172 38.4H169.236L167.188 48H162.228ZM170.132 33.6H180.276L174.836 6.88H175.604L170.132 33.6ZM186.161 59.712V55.072H188.177C190.097 55.072 191.623 54.4213 192.754 53.12C193.906 51.84 194.482 50.1547 194.482 48.064V13.28H199.122V47.872C199.122 51.4133 198.119 54.272 196.114 56.448C194.13 58.624 191.484 59.712 188.177 59.712H186.161ZM194.482 9.408V1.92H199.122V9.408H194.482ZM217.48 48.768C215.645 48.768 214.002 48.352 212.552 47.52C211.101 46.688 209.949 45.4507 209.096 43.808C208.242 42.144 207.816 40.096 207.816 37.664V13.28H212.456V37.664C212.456 39.6053 213.01 41.1733 214.12 42.368C215.229 43.5413 216.69 44.128 218.504 44.128C220.36 44.128 221.842 43.5413 222.952 42.368C224.061 41.1733 224.616 39.6053 224.616 37.664V13.28H229.256V48H224.616V43.392L225.416 44.384C224.626 45.7707 223.56 46.848 222.216 47.616C220.872 48.384 219.293 48.768 217.48 48.768ZM247.637 48.768C244.33 48.768 241.674 47.8187 239.669 45.92C237.685 44 236.693 41.472 236.693 38.336V37.216H241.333V38.528C241.333 40.2133 241.898 41.568 243.029 42.592C244.181 43.616 245.695 44.128 247.573 44.128C249.386 44.128 250.826 43.616 251.892 42.592C252.959 41.568 253.493 40.0853 253.493 38.144C253.493 36.8853 253.247 35.9253 252.757 35.264C252.287 34.5813 251.605 34.0693 250.708 33.728C249.813 33.3867 248.725 33.088 247.445 32.832C245.333 32.384 243.466 31.8933 241.845 31.36C240.223 30.8053 238.954 29.9307 238.036 28.736C237.141 27.5413 236.693 25.76 236.693 23.392C236.693 19.8507 237.663 17.152 239.605 15.296C241.567 13.4187 244.138 12.48 247.317 12.48C250.623 12.48 253.247 13.44 255.189 15.36C257.151 17.2587 258.133 19.7653 258.133 22.88V23.968H253.493V22.72C253.493 21.0133 252.938 19.6587 251.829 18.656C250.741 17.632 249.258 17.12 247.381 17.12C245.546 17.12 244.074 17.6427 242.965 18.688C241.877 19.712 241.333 21.1947 241.333 23.136C241.333 24.3947 241.567 25.3653 242.036 26.048C242.527 26.7093 243.231 27.2 244.149 27.52C245.066 27.84 246.165 28.1387 247.445 28.416C249.535 28.8427 251.381 29.3333 252.981 29.888C254.581 30.4427 255.839 31.328 256.757 32.544C257.674 33.76 258.133 35.5627 258.133 37.952C258.133 41.4293 257.173 44.1067 255.253 45.984C253.354 47.84 250.815 48.768 247.637 48.768ZM278.568 48.384C275.261 48.384 272.605 47.3387 270.6 45.248C268.616 43.136 267.624 40.3093 267.624 36.768V17.6H261.384V13.216H267.624V4.48H272.264V13.216H280.904V17.6H272.264V36.768C272.264 38.88 272.84 40.576 273.992 41.856C275.144 43.1147 276.669 43.744 278.568 43.744H280.904V48.384H278.568ZM296.778 48.768C294.602 48.768 292.693 48.2987 291.05 47.36C289.407 46.4213 288.117 45.1093 287.178 43.424C286.239 41.7173 285.77 39.7333 285.77 37.472V23.744C285.77 21.5253 286.239 19.5733 287.178 17.888C288.117 16.1813 289.407 14.8587 291.05 13.92C292.693 12.96 294.602 12.48 296.778 12.48C300.042 12.48 302.677 13.5147 304.682 15.584C306.687 17.6533 307.69 20.3733 307.69 23.744V31.328H289.482V26.848H303.05V23.584C303.05 21.6427 302.485 20.0853 301.354 18.912C300.245 17.7173 298.719 17.12 296.778 17.12C294.837 17.12 293.29 17.7173 292.138 18.912C290.986 20.0853 290.41 21.6427 290.41 23.584V37.632C290.41 39.5733 290.986 41.1413 292.138 42.336C293.29 43.5307 294.837 44.128 296.778 44.128C298.719 44.128 300.245 43.5307 301.354 42.336C302.485 41.1413 303.05 39.5733 303.05 37.632V36.832H307.69V37.472C307.69 40.8427 306.687 43.5733 304.682 45.664C302.677 47.7333 300.042 48.768 296.778 48.768ZM338.48 48.768C336.581 48.768 334.864 48.352 333.328 47.52C331.813 46.6667 330.608 45.408 329.712 43.744C328.816 42.08 328.368 40.0427 328.368 37.632V23.584C328.368 21.1947 328.816 19.1787 329.712 17.536C330.608 15.872 331.813 14.6133 333.328 13.76C334.864 12.9067 336.581 12.48 338.48 12.48C340.314 12.48 341.882 12.864 343.184 13.632C344.506 14.3787 345.552 15.4133 346.32 16.736L345.552 17.792V-3.8147e-06H350.192V48H345.552V43.488L346.32 44.512C345.552 45.856 344.506 46.9013 343.184 47.648C341.882 48.3947 340.314 48.768 338.48 48.768ZM339.344 44.128C341.306 44.128 342.832 43.5413 343.92 42.368C345.008 41.1733 345.552 39.6053 345.552 37.664V23.584C345.552 21.6427 344.997 20.0853 343.888 18.912C342.8 17.7173 341.274 17.12 339.312 17.12C337.349 17.12 335.802 17.7173 334.672 18.912C333.562 20.0853 333.008 21.6427 333.008 23.584V37.632C333.008 39.5733 333.562 41.1413 334.672 42.336C335.802 43.5307 337.36 44.128 339.344 44.128ZM369.278 48.768C367.102 48.768 365.193 48.2987 363.55 47.36C361.907 46.4213 360.617 45.1093 359.678 43.424C358.739 41.7173 358.27 39.7333 358.27 37.472V23.744C358.27 21.5253 358.739 19.5733 359.678 17.888C360.617 16.1813 361.907 14.8587 363.55 13.92C365.193 12.96 367.102 12.48 369.278 12.48C372.542 12.48 375.177 13.5147 377.182 15.584C379.187 17.6533 380.19 20.3733 380.19 23.744V31.328H361.982V26.848H375.55V23.584C375.55 21.6427 374.985 20.0853 373.854 18.912C372.745 17.7173 371.219 17.12 369.278 17.12C367.337 17.12 365.79 17.7173 364.638 18.912C363.486 20.0853 362.91 21.6427 362.91 23.584V37.632C362.91 39.5733 363.486 41.1413 364.638 42.336C365.79 43.5307 367.337 44.128 369.278 44.128C371.219 44.128 372.745 43.5307 373.854 42.336C374.985 41.1413 375.55 39.5733 375.55 37.632V36.832H380.19V37.472C380.19 40.8427 379.187 43.5733 377.182 45.664C375.177 47.7333 372.542 48.768 369.278 48.768ZM165.044 121.52V75.28H169.684V79.792L168.916 78.736C169.684 77.4133 170.719 76.3787 172.02 75.632C173.343 74.864 174.921 74.48 176.756 74.48C178.655 74.48 180.361 74.9067 181.876 75.76C183.412 76.6133 184.628 77.872 185.524 79.536C186.42 81.1787 186.868 83.1947 186.868 85.584V99.632C186.868 102.043 186.42 104.08 185.524 105.744C184.628 107.408 183.412 108.667 181.876 109.52C180.361 110.352 178.655 110.768 176.756 110.768C174.921 110.768 173.343 110.395 172.02 109.648C170.719 108.901 169.684 107.856 168.916 106.512L169.684 105.488V121.52H165.044ZM175.892 106.128C177.876 106.128 179.423 105.531 180.532 104.336C181.663 103.141 182.228 101.573 182.228 99.632V85.584C182.228 83.6427 181.663 82.0853 180.532 80.912C179.423 79.7173 177.887 79.12 175.924 79.12C173.94 79.12 172.404 79.7173 171.316 80.912C170.228 82.0853 169.684 83.6427 169.684 85.584V99.664C169.684 101.605 170.228 103.173 171.316 104.368C172.404 105.541 173.929 106.128 175.892 106.128ZM195.044 110V75.28H199.684V80.272L198.884 79.312C199.695 77.8827 200.772 76.784 202.116 76.016C203.46 75.248 205.017 74.864 206.788 74.864H208.292V79.504H205.828C203.972 79.504 202.479 80.08 201.348 81.232C200.239 82.384 199.684 83.9307 199.684 85.872V110H195.044ZM223.091 110.768C220.915 110.768 219.005 110.299 217.363 109.36C215.72 108.421 214.429 107.109 213.491 105.424C212.552 103.717 212.083 101.733 212.083 99.472V85.744C212.083 83.5253 212.552 81.5733 213.491 79.888C214.429 78.1813 215.72 76.8587 217.363 75.92C219.005 74.96 220.915 74.48 223.091 74.48C226.355 74.48 228.989 75.5147 230.995 77.584C233 79.6533 234.003 82.3733 234.003 85.744V93.328H215.795V88.848H229.363V85.584C229.363 83.6427 228.797 82.0853 227.667 80.912C226.557 79.7173 225.032 79.12 223.091 79.12C221.149 79.12 219.603 79.7173 218.451 80.912C217.299 82.0853 216.723 83.6427 216.723 85.584V99.632C216.723 101.573 217.299 103.141 218.451 104.336C219.603 105.531 221.149 106.128 223.091 106.128C225.032 106.128 226.557 105.531 227.667 104.336C228.797 103.141 229.363 101.573 229.363 99.632V98.832H234.003V99.472C234.003 102.843 233 105.573 230.995 107.664C228.989 109.733 226.355 110.768 223.091 110.768ZM251.841 110.768C249.665 110.768 247.755 110.299 246.113 109.36C244.47 108.421 243.179 107.109 242.241 105.424C241.302 103.717 240.833 101.733 240.833 99.472V85.744C240.833 83.5253 241.302 81.5733 242.241 79.888C243.179 78.1813 244.47 76.8587 246.113 75.92C247.755 74.96 249.665 74.48 251.841 74.48C255.105 74.48 257.739 75.5147 259.745 77.584C261.75 79.6533 262.753 82.3733 262.753 85.744V86.384H258.113V85.584C258.113 83.6427 257.547 82.0853 256.417 80.912C255.307 79.7173 253.782 79.12 251.841 79.12C249.899 79.12 248.353 79.7173 247.201 80.912C246.049 82.0853 245.473 83.6427 245.473 85.584V99.632C245.473 101.573 246.049 103.141 247.201 104.336C248.353 105.531 249.899 106.128 251.841 106.128C253.782 106.128 255.307 105.531 256.417 104.336C257.547 103.141 258.113 101.573 258.113 99.632V98.832H262.753V99.472C262.753 102.843 261.75 105.573 259.745 107.664C257.739 109.733 255.105 110.768 251.841 110.768ZM250.081 123.888V120.24H254.177C254.881 120.24 255.446 120.048 255.873 119.664C256.299 119.28 256.513 118.779 256.513 118.16C256.513 117.52 256.299 116.997 255.873 116.592C255.446 116.187 254.881 115.984 254.177 115.984H251.873L250.177 114.864V108.816H253.889V113.968L251.617 113.488C253.366 112.869 254.881 112.731 256.161 113.072C257.462 113.413 258.465 114.064 259.169 115.024C259.873 116.005 260.225 117.125 260.225 118.384C260.225 119.963 259.67 121.275 258.561 122.32C257.451 123.365 255.99 123.888 254.177 123.888H250.081ZM279.653 110.768C277.477 110.768 275.568 110.299 273.925 109.36C272.282 108.421 270.992 107.109 270.053 105.424C269.114 103.717 268.645 101.733 268.645 99.472V85.744C268.645 83.5253 269.114 81.5733 270.053 79.888C270.992 78.1813 272.282 76.8587 273.925 75.92C275.568 74.96 277.477 74.48 279.653 74.48C282.917 74.48 285.552 75.5147 287.557 77.584C289.562 79.6533 290.565 82.3733 290.565 85.744V99.472C290.565 102.843 289.562 105.573 287.557 107.664C285.552 109.733 282.917 110.768 279.653 110.768ZM279.653 106.128C281.594 106.128 283.12 105.531 284.229 104.336C285.36 103.141 285.925 101.573 285.925 99.632V85.584C285.925 83.6427 285.36 82.0853 284.229 80.912C283.12 79.7173 281.594 79.12 279.653 79.12C277.712 79.12 276.165 79.7173 275.013 80.912C273.861 82.0853 273.285 83.6427 273.285 85.584V99.632C273.285 101.573 273.861 103.141 275.013 104.336C276.165 105.531 277.712 106.128 279.653 106.128ZM307.949 110.768C304.642 110.768 301.986 109.819 299.981 107.92C297.997 106 297.005 103.472 297.005 100.336V99.216H301.645V100.528C301.645 102.213 302.21 103.568 303.341 104.592C304.493 105.616 306.008 106.128 307.885 106.128C309.698 106.128 311.138 105.616 312.205 104.592C313.272 103.568 313.805 102.085 313.805 100.144C313.805 98.8853 313.56 97.9253 313.069 97.264C312.6 96.5813 311.917 96.0693 311.021 95.728C310.125 95.3867 309.037 95.088 307.757 94.832C305.645 94.384 303.778 93.8933 302.157 93.36C300.536 92.8053 299.266 91.9307 298.349 90.736C297.453 89.5413 297.005 87.76 297.005 85.392C297.005 81.8507 297.976 79.152 299.917 77.296C301.88 75.4187 304.45 74.48 307.629 74.48C310.936 74.48 313.56 75.44 315.501 77.36C317.464 79.2587 318.445 81.7653 318.445 84.88V85.968H313.805V84.72C313.805 83.0133 313.25 81.6587 312.141 80.656C311.053 79.632 309.57 79.12 307.693 79.12C305.858 79.12 304.386 79.6427 303.277 80.688C302.189 81.712 301.645 83.1947 301.645 85.136C301.645 86.3947 301.88 87.3653 302.349 88.048C302.84 88.7093 303.544 89.2 304.461 89.52C305.378 89.84 306.477 90.1387 307.757 90.416C309.848 90.8427 311.693 91.3333 313.293 91.888C314.893 92.4427 316.152 93.328 317.069 94.544C317.986 95.76 318.445 97.5627 318.445 99.952C318.445 103.429 317.485 106.107 315.565 107.984C313.666 109.84 311.128 110.768 307.949 110.768Z" fill="#203E59"/>
</svg>
